<?xml version="1.0" encoding="utf-8"?>
<!-- Generator: Adobe Illustrator 24.2.3, SVG Export Plug-In . SVG Version: 6.00 Build 0)  -->
<svg version="1.1" id="Layer_1" xmlns="http://www.w3.org/2000/svg" xmlns:xlink="http://www.w3.org/1999/xlink" x="0px" y="0px"
	 viewBox="0 0 324 185.7" style="enable-background:new 0 0 324 185.7;" xml:space="preserve">
<path d="M287.9,69.6c-4.5,0-8.5,0-12.9,0c-0.1-1-0.1-1.9-0.1-2.9c0-6.8,0-13.6,0-20.4c0-5.1-2.9-8.2-7.6-8.4
	c-5.4-0.3-8.8,2.8-8.8,8.3c-0.1,6.8,0,13.6,0,20.4c0,0.9,0,1.9,0,3c-4.5,0-8.6,0-12.9,0c0-14.1,0-28.2,0-42.6
	c3.9,0,7.7-0.1,11.6,0.1c0.5,0,1.1,0.9,1.3,1.5c0.2,1.1,0.1,2.2,0.1,4.3c4.1-5,8.8-6.6,14.4-6.2c5.6,0.4,9.6,3.1,12.9,7.7
	c0.7-0.7,1.2-1.3,1.8-1.9c8.2-8.7,22.3-7.6,27.6,2.3c1.2,2.2,2.1,4.8,2.1,7.3c0.2,9.1,0.1,18.2,0.1,27.5c-4.3,0-8.4,0-13,0
	c0-1,0-1.9,0-2.9c0-6.7,0-13.4,0-20.1c0-5.4-3.1-8.6-8.3-8.6c-5.1,0-8.1,3.2-8.2,8.7C287.8,54.2,287.9,61.8,287.9,69.6z"/>
<path d="M34.2,16c4.1,0,7.8-0.1,11.5,0.1c0.6,0,1.6,1.2,1.6,1.8c0.1,10.9,0.5,21.7-0.1,32.6c-0.6,12.2-10.4,20.1-23.4,19.9
	C11,70,2.4,61.4,2.3,48.6c-0.1-10,0-19.9-0.1-29.9c0-2,0.4-2.9,2.6-2.8c2.6,0.2,5.3,0.2,7.9,0c2.2-0.1,2.6,0.8,2.6,2.8
	c-0.1,9.7,0,19.4,0,29.1c0,8,5.1,11.9,12.8,9.7c3.7-1,6-4.4,6.1-8.9c0-9.8,0-19.6,0-29.4C34.2,18.3,34.2,17.4,34.2,16z"/>
<path d="M15.6,140c0,3.9,0.1,7.6,0,11.3c-0.1,3-0.3,6.1-0.4,9.1c-3.1,0.1-6.1,0.2-9.2,0.3c-0.6,0-1.4,0.2-1.8-0.1
	c-0.7-0.4-1.6-1.1-1.6-1.7c-0.1-17,0-34,0-51.1c0-0.2,0.1-0.3,0.2-0.6c0.4-0.1,0.9-0.3,1.4-0.3c7.5,0,15,0,22.5,0.2
	c4.5,0.1,8.7,1.6,11.9,4.9c4.5,4.6,6.2,9.9,4.1,16.2c-2.3,6.8-7.3,10.2-14.2,11c-3.2,0.4-6.5,0.3-9.8,0.5
	C17.8,139.9,16.8,139.9,15.6,140z M15.6,123.2c0,1.7-0.1,3.4,0.1,5c0.1,0.6,0.9,1.6,1.4,1.6c2.8,0,5.6,0,8.4-0.3
	c2.7-0.3,4.1-2.3,4.5-4.8c0.7-4.4-1.9-7.5-6.4-7.7C15.6,116.5,15.6,116.5,15.6,123.2z"/>
<path d="M169.1,143.6c1.5,6.3,8.2,8.4,12.9,4.7c0.9-0.7,2.3-1.2,3.5-1.3c3.8-0.2,7.6-0.1,11.7-0.1c-1,4.7-3.8,7.9-7.3,10.5
	c-7.7,5.5-22.9,5.8-30.3-4.5c-6.6-9.1-4.8-24.7,3.8-31.2c9.3-7,24.4-5.1,31.3,4c3.6,4.8,4.3,10.3,4,16.1c-0.1,1.8-1.3,1.8-2.6,1.8
	c-8,0-15.9,0-23.9,0C171.2,143.6,170.3,143.6,169.1,143.6z M184.7,135.3c-0.4-4.2-3.9-6.8-8.3-6.5c-4,0.2-6.9,3-6.9,6.5
	C174.6,135.3,179.6,135.3,184.7,135.3z"/>
<path d="M180.8,26.6c12.5-0.9,22.6,7.5,23.4,19.7c0.9,13.2-7.4,23-20.3,23.9c-13.2,0.9-23.5-7.5-24.3-20
	C158.8,36.8,167,27.6,180.8,26.6z M191,48.1c-0.1-0.7-0.2-2-0.4-3.3c-0.7-3.5-3.6-6.3-6.9-6.9c-3.9-0.6-7.2,0.5-9.1,3.9
	c-2.4,4.3-2.4,8.8,0.1,13.1c2,3.5,6.1,4.8,10.2,3.6C188.4,57.6,191.1,53.3,191,48.1z"/>
<path d="M103.7,161.2c-12.9,0.3-22.5-8.6-22.8-21c-0.3-13.2,8.5-22.3,21.9-22.6c13-0.3,22.4,8.3,22.8,20.7
	C125.9,151.8,117.2,160.9,103.7,161.2z M112.2,139.5c-0.1-5.4-2.1-8.9-6-10.1c-4.5-1.5-9.1,0.4-10.9,4.4c-2.4,5.2-0.8,12.5,3.4,14.9
	c2.9,1.7,5.9,1.9,8.8,0.2C111.1,146.8,112.3,143.4,112.2,139.5z"/>
<path d="M71.7,69.6c-4.5,0-8.7,0-13.1,0c0-1.1,0-2,0-3c0-12.2,0.1-24.4-0.1-36.5c0-2.6,0.8-3.3,3.3-3.2c3.2,0.2,6.3,0,9.7,0
	c0.1,1.9,0.2,3.5,0.4,5.6c3.7-4.5,8.1-6.2,13.3-6c8.9,0.4,15.2,6.3,15.7,15.2c0.4,8.2,0.2,16.4,0.2,24.6c0,1,0,1.9,0,3.1
	c-4.3,0-8.5,0-13,0c0-3,0-6,0-9c0-4.6,0-9.2,0-13.8c0-5.6-3-8.8-8.3-8.8c-5.1,0-8.1,3.2-8.1,8.7c0,6.6,0,13.2,0,19.9
	C71.7,67.4,71.7,68.4,71.7,69.6z"/>
<path d="M282.1,147.1c4.3,0,8.1-0.1,12,0.1c0.6,0,1.3,0.7,1.7,1.3c1.9,2.7,6.2,3.5,8.9,1.5c2.1-1.6,2.1-4-0.3-5
	c-2.9-1.2-6.1-1.8-9.1-2.7c-1.7-0.5-3.4-0.8-5.1-1.4c-4.3-1.5-7.5-4.1-8-8.9c-0.5-5.1,1.7-9.2,6-11.5c8-4.4,16.3-4.2,24.3,0.2
	c4.1,2.3,6.2,6.4,5.8,10.8c-3.9,0-7.9,0-11.8,0c-0.5,0-1.1-0.5-1.4-1c-1.9-2.7-6-3.7-8.8-2.2c-2,1.1-2.2,3.4-0.2,4.7
	c1.3,0.8,2.9,1.2,4.4,1.6c3.3,0.9,6.7,1.5,10,2.6c4.6,1.5,7.9,4.4,8.3,9.6c0.4,5.3-2.2,9.3-6.7,11.7c-7.6,3.9-15.5,3.8-23.2,0
	C284.6,156.2,282.5,152.4,282.1,147.1z"/>
<path d="M245.7,132.4c-4.5,0-8.7,0.1-12.9-0.1c-0.7,0-1.5-0.8-2.1-1.4c-3.6-3.7-9.8-2.8-11.9,1.9c-2,4.4-2,8.9,0.1,13.3
	c2.2,4.5,8.4,5.3,11.8,1.6c0.5-0.6,1.3-1.3,2-1.4c3.4-0.1,6.9-0.1,10.3-0.1c0.8,0,1.6,0.1,2.4,0.1c-1,8.5-10.5,15.2-20.8,14.8
	c-12-0.4-20-8.2-20.6-19.9c-0.7-12.7,6.2-22,17.5-23.5C233.6,116.2,243.3,121.9,245.7,132.4z"/>
<path d="M150.3,69.6c-4.5,0-8.6,0-13.1,0c0-1-0.1-2-0.1-3.1c0-8.6,0-17.3,0-25.9c0-1.8-0.2-2.9-2.4-2.8c-0.5,0-1.5-1-1.5-1.5
	c-0.1-3-0.1-6-0.1-9.1c1.4-0.2,2.5-0.3,3.7-0.5c0.2-1.7,0.2-3.4,0.5-5c1.3-9.5,8.9-11.8,16.4-11.8c0.4,0,1.2,0.8,1.2,1.3
	c0.1,3.2,0.1,6.3,0.1,9.4c-4.5,1.2-5.1,2.1-4.5,6.3c0.7,0,1.5,0.1,2.3,0.1c0.8,0,1.6,0.1,2.8,0.1c0,3.3,0,6.5-0.1,9.7
	c0,0.4-0.9,0.9-1.5,1c-1.1,0.2-2.3,0-3.7,0C150.3,48.6,150.3,59,150.3,69.6z"/>
<path d="M254.1,129.1c-1.3-0.1-2.3-0.2-3.6-0.4c0-3.5,0-7,0-10.4c3.7-0.7,3.7-0.7,3.7-4.6c0-6.1,0-6.1,6.1-6.1c2.2,0,4.4,0,7,0
	c0,3.5,0,6.8,0,10.4c2.4,0,4.4,0.1,6.4,0c1.5-0.1,2.3,0.4,2.2,2.1c-0.1,2.3-0.1,4.6,0,6.9c0,1.5-0.6,2-2.1,1.9c-2-0.1-4,0-6.3,0
	c-0.1,1-0.1,1.9-0.1,2.7c0,4.6,0,9.2,0,13.8c0,3.2,0.8,4,4,4.3c4.7,0.3,4.7,0.3,4.7,4.9c0,6.3,0,6.3-6.3,6.2c-0.6,0-1.2,0-1.9-0.1
	c-10-0.8-13.6-4.7-13.7-14.7c0-4.7,0-9.3,0-14C254.3,131,254.2,130.1,254.1,129.1z"/>
<path d="M147.2,118c0,1.3,0,2.2,0,3c0,15.3,0,30.5,0,45.8c0,1.1,0,2.1-0.2,3.2c-1,6.7-4.3,10-11.1,10.8c-2.4,0.3-4.8,0.2-7.1,0.3
	c-1.4,0.1-1.9-0.5-1.9-1.9c0.1-2.5,0.1-4.9,0-7.4c0-1.4,0.6-1.9,1.9-1.8c0.4,0,0.7,0,1.1,0c3.5-0.2,4.2-0.8,4.2-4.3
	c0-14.2,0-28.4,0-42.6c0-0.9,0.1-1.8,0-2.6c-0.2-1.9,0.6-2.5,2.4-2.4C139.9,118.1,143.3,118,147.2,118z"/>
<path d="M225.8,69.6c-4.5,0-8.5,0-12.8,0c0-14.1,0-28.2,0-42.4c4.1,0,8.2,0,12.7,0c0,2.1,0,4.2,0,6.4c3.6-3.4,6.6-7,12.2-6.8
	c0,4.3,0,8.6,0,12.9c-2,0.2-4,0.4-6,0.7c-3.1,0.4-5,2.3-5.5,5.3c-0.4,2.5-0.5,5.1-0.5,7.6C225.8,58.6,225.8,64,225.8,69.6z"/>
<path d="M64.5,124.4c3.5-3.5,6.6-7,12.3-6.7c0,4,0.1,7.9-0.1,11.7c0,0.5-1.1,1.3-1.7,1.3c-9.1,0.9-10.5,2.4-10.5,11.5
	c0,5.2-0.1,10.4,0,15.6c0.1,2.4-0.8,3.1-3,2.9c-2.6-0.2-5.3-0.1-7.9,0c-1.5,0-2.2-0.5-2.2-2.1c0-12.9,0-25.7,0-38.6
	c0-1.4,0.5-2.1,2-2.1c3,0.1,6,0.1,9,0c1.6,0,2.3,0.5,2.2,2.1C64.5,121.5,64.5,123,64.5,124.4z"/>
<path d="M112.3,69.5c0-14.2,0-28.1,0-42.5c4.1,0,8.1-0.1,12.1,0.1c0.4,0,1,1.5,1,2.3c0.1,8.3,0,16.6,0,24.9c0,5,0,10,0,15.2
	C120.9,69.5,116.8,69.5,112.3,69.5z"/>
<path d="M148.2,107.7c0,4.2-3.4,7.5-7.6,7.5c-4.3,0-7.8-3.4-7.7-7.7c0.1-4.2,3.4-7.5,7.6-7.6C144.9,100,148.3,103.4,148.2,107.7z"/>
<path d="M118.7,9c4.3,0,7.7,3.4,7.7,7.7c0,4.3-3.5,7.7-7.8,7.6c-4.2-0.1-7.5-3.4-7.6-7.6C111,12.5,114.4,9.1,118.7,9z"/>
</svg>
